<svg width="19" height="22" viewBox="0 0 19 22" fill="none" xmlns="http://www.w3.org/2000/svg">
<path d="M7.125 3.5626V7.80383L0.299102 11.704C0.208223 11.756 0.132699 11.8311 0.0801757 11.9217C0.0276521 12.0123 -6.56565e-06 12.1151 1.16907e-09 12.2198V14.6505C1.16907e-09 15.045 0.377402 15.3296 0.75666 15.2213L7.125 13.4018V17.2188L4.9875 18.822C4.83795 18.934 4.75 19.1103 4.75 19.297V20.781C4.75 21.1673 5.11293 21.4508 5.48773 21.3569L9.5 20.1876L13.5123 21.3569C13.8871 21.4508 14.25 21.1673 14.25 20.781V19.297C14.25 19.1099 14.1621 18.934 14.0125 18.822L11.875 17.2188V13.4018L18.243 15.2213C18.6222 15.3296 19 15.045 19 14.6505V12.2198C19 12.0068 18.8857 11.8102 18.7009 11.7044L11.875 7.80383V3.5626C11.875 2.25078 10.8118 9.72748e-05 9.5 9.72748e-05C8.18818 9.72748e-05 7.125 2.25078 7.125 3.5626Z" fill="white"/>
</svg>
