<svg width="22" height="20" viewBox="0 0 22 20" fill="none" xmlns="http://www.w3.org/2000/svg">
<path d="M0.446584 13.0732H1.64969C2.45961 16.8888 6.72223 19.0156 10.6611 19.0156C14.6065 19.0156 18.8636 16.8845 19.6726 13.0732H20.8757C21.2728 13.0732 21.4716 12.5932 21.1908 12.3124L18.7014 9.82297C18.5273 9.64894 18.2451 9.64894 18.0711 9.82297L15.5816 12.3124C15.3008 12.5932 15.4997 13.0732 15.8968 13.0732H17.2021C16.4485 15.0906 14.0466 16.2891 11.8496 16.5649V9.5078H13.7809C14.027 9.5078 14.2265 9.30825 14.2265 9.06213V7.57653C14.2265 7.3304 14.027 7.13085 13.7809 7.13085H11.8496V6.92769C13.2342 6.43826 14.2263 5.11805 14.2265 3.56586C14.2268 1.62567 12.652 0.0273937 10.712 0.000355823C8.71958 -0.027462 7.09571 1.57936 7.09571 3.56542C7.09571 5.11779 8.08794 6.43819 9.47266 6.92769V7.13085H7.54139C7.29526 7.13085 7.09571 7.3304 7.09571 7.57653V9.06213C7.09571 9.30825 7.29526 9.5078 7.54139 9.5078H9.47266V16.5649C7.28378 16.2901 4.874 15.0913 4.12017 13.0732H5.42549C5.82255 13.0732 6.0214 12.5932 5.74062 12.3124L3.25117 9.82297C3.07713 9.64894 2.79494 9.64894 2.62087 9.82297L0.131415 12.3124C-0.149326 12.5932 0.0495213 13.0732 0.446584 13.0732ZM10.6611 2.37694C11.3165 2.37694 11.8496 2.91008 11.8496 3.56542C11.8496 4.22075 11.3165 4.75389 10.6611 4.75389C10.0058 4.75389 9.47266 4.22075 9.47266 3.56542C9.47266 2.91008 10.0058 2.37694 10.6611 2.37694Z" fill="white"/>
</svg>
