<svg width="19" height="15" viewBox="0 0 19 15" fill="none" xmlns="http://www.w3.org/2000/svg">
<path d="M17.1157 5.78758L16.6772 4.69116L15.8995 2.74688C15.2319 1.07807 13.6396 0 11.842 0H6.88672C5.08954 0 3.49682 1.07807 2.82921 2.74688L2.05158 4.69116L1.61301 5.78758C0.671894 6.14537 0 7.04904 0 8.1158V9.98867C0 10.6176 0.240352 11.1854 0.624292 11.6247V13.7344C0.624292 14.4239 1.18342 14.983 1.87288 14.983H3.12146C3.81091 14.983 4.37004 14.4239 4.37004 13.7344V12.4858H14.3587V13.7344C14.3587 14.4239 14.9178 14.983 15.6073 14.983H16.8559C17.5453 14.983 18.1045 14.4239 18.1045 13.7344V11.6247C18.4884 11.1858 18.7288 10.618 18.7288 9.98867V8.1158C18.7288 7.04904 18.0569 6.14537 17.1157 5.78758ZM5.14768 3.67435C5.43212 2.96344 6.12079 2.49717 6.88672 2.49717H11.842C12.608 2.49717 13.2966 2.96344 13.5811 3.67435L14.3587 5.61863H4.37004L5.14768 3.67435ZM3.12146 9.98087C2.37231 9.98087 1.87288 9.48299 1.87288 8.73619C1.87288 7.98938 2.37231 7.4915 3.12146 7.4915C3.87061 7.4915 4.99434 8.61172 4.99434 9.35853C4.99434 10.1053 3.87061 9.98087 3.12146 9.98087ZM15.6073 9.98087C14.8581 9.98087 13.7344 10.1053 13.7344 9.35853C13.7344 8.61172 14.8581 7.4915 15.6073 7.4915C16.3565 7.4915 16.8559 7.98938 16.8559 8.73619C16.8559 9.48299 16.3565 9.98087 15.6073 9.98087Z" fill="white"/>
</svg>
