<svg width="34" height="34" viewBox="0 0 34 34" fill="none" xmlns="http://www.w3.org/2000/svg">
<path d="M17.2878 0C8.09263 0 0.599609 7.49302 0.599609 16.6882C0.599609 25.8835 8.09263 33.3765 17.2878 33.3765C26.4831 33.3765 33.9761 25.8835 33.9761 16.6882C33.9761 7.49302 26.4831 0 17.2878 0ZM23.9631 17.9399H18.5395V23.3635C18.5395 24.0477 17.9721 24.6151 17.2878 24.6151C16.6036 24.6151 16.0362 24.0477 16.0362 23.3635V17.9399H10.6126C9.92833 17.9399 9.36093 17.3725 9.36093 16.6882C9.36093 16.004 9.92833 15.4366 10.6126 15.4366H16.0362V10.0129C16.0362 9.32872 16.6036 8.76132 17.2878 8.76132C17.9721 8.76132 18.5395 9.32872 18.5395 10.0129V15.4366H23.9631C24.6474 15.4366 25.2148 16.004 25.2148 16.6882C25.2148 17.3725 24.6474 17.9399 23.9631 17.9399Z" fill="url(#paint0_linear_5706_176)"/>
<defs>
<linearGradient id="paint0_linear_5706_176" x1="17.2878" y1="0" x2="17.2878" y2="33.3765" gradientUnits="userSpaceOnUse">
<stop stop-color="white"/>
<stop offset="1" stop-color="#BBBBBB" stop-opacity="0.8"/>
</linearGradient>
</defs>
</svg>
