<svg width="47" height="47" viewBox="0 0 47 47" fill="none" xmlns="http://www.w3.org/2000/svg">
<path d="M8.80469 44.0635H38.1797V36.7197C38.1765 33.994 37.0923 31.3807 35.1648 29.4533C33.2374 27.5259 30.6242 26.4417 27.8984 26.4385H19.0859C16.3602 26.4417 13.7469 27.5259 11.8195 29.4533C9.8921 31.3807 8.80787 33.994 8.80469 36.7197V44.0635Z" fill="white"/>
<path d="M13.2197 13.218C13.2197 15.2515 13.8227 17.2392 14.9524 18.93C16.0821 20.6207 17.6879 21.9385 19.5665 22.7167C21.4452 23.4948 23.5124 23.6984 25.5067 23.3017C27.5011 22.905 29.3331 21.9258 30.7709 20.488C32.2088 19.0501 33.188 17.2182 33.5847 15.2238C33.9814 13.2294 33.7778 11.1622 32.9996 9.28355C32.2214 7.4049 30.9037 5.79919 29.2129 4.66947C27.5222 3.53975 25.5344 2.93677 23.501 2.93677C20.7742 2.93677 18.1591 4.01997 16.231 5.94808C14.3029 7.87618 13.2197 10.4913 13.2197 13.218Z" fill="white"/>
</svg>
