<svg width="13" height="13" viewBox="0 0 13 13" fill="none" xmlns="http://www.w3.org/2000/svg">
<path d="M2.43555 12.1878H10.5605V10.1565C10.5597 9.40257 10.2598 8.67976 9.72666 8.14665C9.19354 7.61353 8.47073 7.31364 7.7168 7.31276H5.2793C4.52536 7.31364 3.80255 7.61353 3.26944 8.14665C2.73632 8.67976 2.43643 9.40257 2.43555 10.1565V12.1878Z" fill="url(#paint0_linear_5899_8)"/>
<path d="M3.65625 3.65607C3.65625 4.21851 3.82303 4.76832 4.13551 5.23597C4.44798 5.70362 4.89212 6.06811 5.41174 6.28335C5.93137 6.49859 6.50315 6.5549 7.05479 6.44518C7.60642 6.33545 8.11313 6.06461 8.51083 5.6669C8.90854 5.2692 9.17938 4.76249 9.28911 4.21086C9.39883 3.65922 9.34252 3.08744 9.12728 2.56781C8.91205 2.04818 8.54755 1.60405 8.0799 1.29158C7.61225 0.9791 7.06244 0.812317 6.5 0.812317C5.74579 0.812317 5.02247 1.11193 4.48917 1.64523C3.95586 2.17854 3.65625 2.90186 3.65625 3.65607Z" fill="url(#paint1_linear_5899_8)"/>
<defs>
<linearGradient id="paint0_linear_5899_8" x1="6.49805" y1="7.31276" x2="6.49805" y2="12.1878" gradientUnits="userSpaceOnUse">
<stop stop-color="white"/>
<stop offset="0.0001" stop-color="white"/>
<stop offset="1" stop-color="#EAEAEA"/>
</linearGradient>
<linearGradient id="paint1_linear_5899_8" x1="6.5" y1="0.812317" x2="6.5" y2="6.49982" gradientUnits="userSpaceOnUse">
<stop stop-color="white"/>
<stop offset="0.0001" stop-color="white"/>
<stop offset="1" stop-color="#EAEAEA"/>
</linearGradient>
</defs>
</svg>
